<?xml version="1.0" encoding="utf-8"?>
<!-- Generator: Adobe Illustrator 22.1.0, SVG Export Plug-In . SVG Version: 6.00 Build 0)  -->
<svg version="1.1" id="Laag_1" xmlns="http://www.w3.org/2000/svg" xmlns:xlink="http://www.w3.org/1999/xlink" x="0px" y="0px"
	 viewBox="0 0 652 320.3" style="enable-background:new 0 0 652 320.3;" xml:space="preserve">
<style type="text/css">
	.st0{fill-rule:evenodd;clip-rule:evenodd;fill:#0073B9;}
	.st1{fill:#FFFFFF;}
	.st2{fill:#EC0F8B;}
</style>
<g>
	<g>
		<g>
			<path class="st0" d="M14.6,238.9c-0.1,2-2.9,2-2.9,3.8c0,0.1-0.7,0.3-1,0.2c-5.5-1.2-7.6-3.6-8.2-8.9c-0.1-0.8,0.7-2.2-1.7-1.9
				c-1.2,0.2-0.9-1.8-0.3-2c2.7-0.8,3-3.6,5.3-4.7c1.5-0.7,0.3-0.9-0.5-1.4c-4.8-2.7-5-5.8-0.6-9.1c1.7-1.3,1.9-2.9,0.1-3.5
				c-2.5-0.9-1.6-2.7-1.2-3.5c0.6-1.2,1.7-1.9-0.1-3.1c-0.5-0.3,0-1.1,1.1-1.4c3.6-0.9,3.7-3.1,1.2-5.8c-1.2-1.3-3.1-3.6-0.3-5.4
				c1.2-0.7,1.1-1.5,1.1-2.4c0.1-3.2-1.3-6.3-0.8-9.5c0.1-0.4-0.1-0.8-0.7-1.1c-3.5-2-1.7-3.8,0.6-5.4c-3.3-2.5-3.7-5.9-1.3-8.8
				c0.1-0.1,0.3-0.2,0.3-0.2c-1.7-4,1.9-7.3,1.8-11.3c-0.2-3.8-4-6.4-3.1-10.3c0.2-1.1-0.4-2.3,1.5-2.9c0.9-0.3,1-1.1,0.5-2.1
				c-0.9-1.8-0.4-3.3,2.2-3.8c-2.9-1.7-3.3-3.4-1.5-5.6c0.9-1,0.9-2.1,0-3c-2.4-2.4-2.6-4.4-0.5-6.6c0.2-0.2,0.7-0.2,0.5-0.7
				c-1.8-5.4,0.7-10.7,0.9-16c0.2-4.5-4.1-7.8-2.9-12.2c0.2-0.7-0.4-1-1.2-1.1c-0.8,0-1.4-1-1-1.1c2.3-0.9,1.6-3.6,3.5-4.5
				c3.5-1.7,3.9-3.3,1.1-5.8c-1.2-1.1-2.5-1.2,0.2-2.4c3-1.3,3.1-6.6,0.7-9c-1.3-1.4-1.2-3-0.2-4.1c1.3-1.5,1.8-2.6-0.2-3.9
				c-0.3-0.2-0.6-0.5-0.8-0.8c3.2-2.6-2.7-5.5,0.7-8.6c2.6-2.4-1-6.8,1.8-9.9C9.7,38,7.8,38,7.5,37.4c-0.9-1.7-2-3.4,1.5-3.8
				c0.7-0.1,1.8,0.6,1.9-0.9c0.1-1.1,0.1-2.4-1.1-2.6c-2.2-0.3-1.7-1.6-1.6-2.6c0.2-1.7,1.8-1.1,2.8-1c3.7,0.1,7.1,0.2,7.7-4.1
				c0.2-1.4,1.7-0.8,2.6-0.9c12.9-0.5,25.8-1,38.7-0.7c4.6,0.1,9.1-1.4,13.9-0.3c1.2,0.3,3.2-2.5,5.8-1.9c1.5,0.3,3.1-0.7,4.2,1.6
				c0.6,1.4,4.8,1.1,5.4,0.3c1.5-2.1,3.2-1.1,4.8-1.1c4.1-0.1,8.1-0.1,12.2,0.1c0.9,0,1.1,0,1.7-0.7c1.1-1.4,3-1.6,3.8,0.3
				c0.6,1.3,1.9,1.2,2.6,0.9c5.5-2.7,11.5-0.7,17.2-1.3c2.6-0.3,5.3,0.6,7.7-1.3c0.6-0.5,2.3-0.5,3.3,0.3c1.5,1.1,2.9,2.5,4.4-0.1
				c0.5-0.9,2-0.3,2.7,0.6c1.1,1.7,2.3,1.8,3.6,0.3c0.8-0.8,1.7-0.5,2.6-0.5c4,0,8.1,0,12.2,0c0.8,0,2.1,1,2.3-0.8
				c0.1-0.9,1.6-0.9,2-0.6c4.5,3,8.7-1.4,13.3-0.2c4.9,1.4,10.1,0.9,15.2,0.8c2.3,0,4.8,0.8,6.6-1.3c0.3-0.3,1.6-0.4,1.9-0.1
				c3.4,3,6.5-0.9,10-0.2c3.9,0.8,8,0.7,12.1,0.8c1.4,0,3.2,0.8,3.8-1.5c0.3-1.1,7.1-0.4,8.3,0.8c1.6,1.7,5.3,1.7,6.9-0.1
				c0.8-0.9,1.7-0.6,2.5-0.5c3.6,0.1,7.2-0.2,10.8,0.5c1.9,0.3,4.6,1.4,6.6-1.5c0.9-1.4,4.6-0.8,6.9-0.3c1.7,0.4,3.4,0.6,5.2,0.5
				c10.4-0.5,20.8,1.1,31.2,0.7c1.4-0.1,3.3,0.8,3.7-1.5c0.1-0.8,1.1-0.7,1.9,0.1c2,2.1,3.2,2.2,5,0.1c0.5-0.6,0.8-0.3,1.3-0.2
				c3.1,0.6,7-1.2,9.3,2.2c0.2,0.2,1,0.4,1.1,0.3c3.9-3.8,8.8-1.1,13.2-1.6c3.1-0.3,7.4,0.9,9.3,0c2.8-1.3,4-1,5.8,0.5
				c0.3,0.2,1.7,0.1,1.8-0.2c1.1-2,2-3.2,3,0c0.1,0.2,1.3,0.3,1.4,0.2c2.8-4.1,7.3-2.1,10.7-1.8c11,0.9,22.1,1,33.1,1.5
				c3.7,0.2,7.4,0.4,11.1,0.4c1.6,0,3.7,0.8,4.5-1.7c0.2-0.5,2.7-1.4,3.7,0.7c0.7,1.5,2.6,1.6,4,0.6c2.8-2.1,3.7-2,5.6,0.9
				c1.9-1.2,3.6-4.5,6.1-0.3c0.4,0.6,2,1.3,3.4,0.4c3-1.9,6-2.8,8.8,0.4c0.5,0.5,1.2,0.4,1.8,0.1c3.9-2.5,9.9-2.6,13.4-0.2
				c1.1,0.7,1.5,0.3,2.5-0.3c1.5-0.9,4-2,4.7,1.1c0.3,1.5,1.6,1.1,2.5,1.1c9.2,0,18.4,0,27.6,0c0.3,0,0.7,0.1,0.8,0
				c2.2-2.1,4.9-0.8,7.4-0.9c1,0,3.3,1,3.3-1.6c0-0.6,2.2-0.7,3-0.3c3.1,1.7,5.7,1.2,8.2-0.8c0.2-0.2,0.8-0.8,1.6,0
				c1.5,1.5,3.6,1.1,4.6-0.7c0.3-0.6,3.8-1,4-0.5c0.4,1.1,2,1.2,2,1.3c3,5,3.8-0.1,4.1-1c1.5-3.2,4.5-2.1,6.2-1.3
				c1.8,0.8,3.6,1,4.8,0.3c5.3-3.3,11.5-2.7,17.2-3.1c12.1-0.8,24.2-2.4,36.3-3c0.6,0,1.8-0.2,1.8-0.4c1-4.9,5.7-1.8,8.5-3
				c1.6-0.7,3.5-1.2,5-1.7c4.9-1.6,10.4-1.5,15.7-1.1c1.5,0.1,0.6,1.6,1,2.4c0.5,1,1.8-0.9,2.2,0.5c0.4,1.6-1.9,1-2,1.5
				c-0.2,3-4,4.1-4.6,6.3c-0.5,2.2-0.9,5.3,1,7.2c2.4,2.4,2,5.2,1.2,7.3c-0.6,1.6-0.2,2.9-0.5,4.3c-0.5,2.9,1.8,5.9-0.6,9
				c-0.4,0.6-2.5,4.3,2,4.5c0.1,0,0.4,1.2,0.2,1.7c-0.9,2.6-1.2,5.2-1.6,7.8c-0.7,3.9-1.3,4.3,1.5,7.8c0.5,0.6,0.6,2,0.1,2.4
				c-2,1.7-0.6,4.5-2.9,6c-0.1,0.1-0.1,0.2-0.2,0.3c-1.8,2.1,2.9,2.5,1.5,4.4c-1.2,1.7-1.5,3.2,0.9,4.3c0.6,0.3,0.9,1,0.7,1.1
				c-3.4,1.6,0.2,5.2-2.6,6.9c-0.2,0.1-0.2,0.6-0.3,0.9c4,0.6,1.4,3.7,2.5,5.4c0.4,0.7,0.5,1.9-1,2.4c-1,0.4-1.1,1.3-0.9,2.2
				c0.7,3.5,1.5,6.9,0.6,10.5c-0.2,1.1,1.1,3.1,1.5,4.8c1.3,4.5,0.1,8.8-0.4,13.2c-0.4,2.7,0.3,5.6,0.8,8.4c0.3,1.5,1.3,2.9-1.3,3.7
				c-0.9,0.2-0.4,1.5-0.3,2.3c1,5.6,3.2,11.5,1.9,17c-0.9,4,1.6,8.5-2.2,12.1c-0.4,0.4-0.7,3.3,1,3.9c1.7,0.6,1.3,1.4,1.6,2.3
				c0.7,2.3,0.3,4.2-2.1,5.5c-1,0.6-2.2,1.2,0,1.6c1.2,0.2,1.1,0.8,1.2,1.5c0.2,2.2-2.2,4.6,0.8,6.6c0.3,0.2,0.4,1.7-0.6,1.8
				c-3.8,0.2-2.9,2.3-2.7,4.3c0.2,1.4,0.2,2.7-1.1,4.2c-1,1.2-1,3.5,1,5.3c2,1.8,2.4,5.1,1.3,7.3c-0.7,1.3-1.1,2.5-1.1,3.8
				c0.1,3.7-1.9,7.3-0.5,11c0.3,0.7-3.4,2.2-4.3,1.8c-2.4-1.1-5.7-0.3-6.2,1.1c-0.8,2.3-2.1,2-3.8,2c-4.2,0.1-8.3,0-12.4,0.6
				c-4.5,0.6-9-1-13.6-0.6c-2.7,0.2-5.4,0.1-7.6,2c-0.2,0.2-1.8,1.5-2.9-0.2c-0.7-1.1-8.1-0.8-9.3,0c-3.3,2.5-3.8,2.2-8.9,0.7
				c-1.1-0.3-4.8-1.1-5.9,1.7c-0.4,1-1.2,1.5-2.4,1.5c-2.1-0.1-4.2,0.3-6.3,0.6c-1.5,0.2-3.1,0.7-4.6-1.4c-1.4-2-4.8,0-7.1,0.4
				c-2.8,0.5-4,0.8-4-2.2c0-1.6-1.6-1.6-3-1.6c-13.8,0-27.6,0-41.3,0c-1.1,0-2.7-0.4-2.6,1.4c0.3,2.5-1.6,2.2-3.4,2.2
				c-18.2-0.8-36.4-0.8-54.6-2.1c-1.6-0.1-3.8-1.1-5,1.6c-0.4,1-3.8,1.1-5-0.1c-2.5-2.5-4.9-2-7.6-0.6c-0.5,0.3-0.7,0.4-1.3,0.1
				c-4.7-2.4-4.6-2.2-9.8,0.1c-1.5,0.7-4.2,1.1-5.5-0.8c-1.1-1.6-3-1.5-3.7-0.9c-3.1,2.5-6.7,0.6-9.9,1.2c-2.2,0.5-1.1-2-2.8-2.2
				c-2.1-0.3-3.3,1.4-4.9,1.4c-7.2,0.1-14.4,0.1-21.6-0.1c-1.6-0.1-3.6,0.1-5-1.7c-1-1.3-1.7,1.2-3.1,1.2c-4.7-0.1-9.6,0.5-14.2-0.2
				c-5.9-0.9-11.9-0.8-17.7-0.2c-2.6,0.2-5.4,1.1-8.2,1.1c-1.6,0-3.3,0.4-4.1-1.5c-0.5-1-2.1-0.8-2.1-0.2c0.2,3.4-2.8,1.7-3.8,1.5
				c-4.5-0.7-8.9-0.5-13.4-0.6c-0.9,0-1.8-0.3-2.5,0.6c-0.8,1.1-1.6,1.4-2.1-0.3c0-0.2-1.1-0.3-1.4-0.2c-4.5,2.9-9.5,0.5-14.3,1.2
				c-0.8,0.1-1.6,0.1-1.8-1c-0.2-1.7-2.2-1.5-2.8-1c-3.3,2.4-7.1,0.9-10.7,1.3c-1.5,0.2-3.3-0.5-4,1.4c-0.1,0.2-0.7,0.5-0.9,0.4
				c-5.4-3.2-11,1.2-16.5-0.3c-0.8-0.2-1.4,0.1-1.6,1.1c-0.4,1.7-1.3,1-2.1,0.1c-1.6-2-1.9-2.1-2.7-0.3c-0.7,1.7-1.5,1-2.7,0.9
				c-7.1-0.7-14.4-1.2-21.2,0c-4.9,0.9-9.7,1.4-14.4,0.9c-5.7-0.6-11.4-1.1-16.8-0.3c-4.7,0.7-9.3,1.2-13.9,1.1
				c-2.4,0-4.8,0.5-7.1-0.5c-0.7-0.3-2.2-0.2-2.6,0.3c-3.4,3.4-7.8,1.3-11.6,1.6c-2.2,0.2-4.5-1.4-6.6,0.7c-0.4,0.4-1.4,0.4-1.8-0.2
				c-1-1.4-1.8-1.5-2.8,0c-0.2,0.3-1.1,0.5-1.5,0.3c-4.5-1.7-8.9,0.9-13.4,0c-4.1-0.9-7.8-2.6-12.5-1.9c-9.7,1.5-19.4,2.8-29.3,2.7
				c-5.7,3.9-12.6,2.3-18.9,3.2c-6.5,0.9-13.2,0.8-19.8,1.1c-1.7,0.1-6.4-2.5-7.7-3.8c-1.8-1.8-4.7-1.9-7.1-2.4
				C16.1,241,15.6,240.1,14.6,238.9"/>
		</g>
		<path class="st1" d="M305.2,103.4h10c8.4,0,12.7-4.1,12.7-11.5c0-7.4-4.5-11.5-13.2-11.5h-9.6V103.4L305.2,103.4z M278.1,74.9
			c0-9.9,4.9-15.2,14-15.2h23.4c25.4,0,39.2,11,39.2,32.2c0,21.1-13.3,31.5-38.4,31.5h-10.7v24.9h-27.5V74.9L278.1,74.9z"/>
		<path class="st1" d="M362.2,71.7c0-8.6,4-12.7,11.5-12.7h4c7.8,0,11.9,4.1,11.9,12.7v52.8h27c8.5,0,12.6,3.8,12.6,11.4v0.4
			c0,7.8-4.1,12.1-12.6,12.1h-54.4V71.7L362.2,71.7z"/>
		<path class="st1" d="M468.6,110.2h19L478,84.4L468.6,110.2L468.6,110.2z M492.5,129.9h-28.6l-7,18.4h-27.4l31.7-81.8
			c1.4-4.4,5.1-7.5,17.4-7.5c12.5,0,15.6,3.1,17,7.5l33,81.8h-28.6L492.5,129.9L492.5,129.9z"/>
		<path class="st1" d="M532.1,71.7c0-8.5,4.2-12.7,11.2-12.7h2.6c6.4,0,8.5,1.9,12.3,6.4l31.8,41.4V59.6h25.8v76.6
			c0,8.5-4.2,12.7-11.1,12.7h-2.2c-6.6,0-8.5-1.6-12.2-6l-32.5-42.1v47.4h-25.8V71.7L532.1,71.7z"/>
		<path class="st1" d="M280.2,177.4c0-2.3,1.4-3.4,3.4-3.4h1.2c2.1,0,3.5,1.1,3.5,3.4V200h-8V177.4L280.2,177.4z"/>
		<path class="st1" d="M294.1,177.7c0-2.5,1.2-3.7,3.3-3.7h0.8c1.9,0,2.5,0.6,3.6,1.9l9.3,12.1v-13.8h7.5v22.3
			c0,2.5-1.2,3.7-3.2,3.7h-0.6c-1.9,0-2.5-0.5-3.6-1.8l-9.5-12.3V200h-7.5V177.7L294.1,177.7z"/>
		<path class="st1" d="M322.8,177.6v-0.1c0-2.2,1.3-3.3,3.7-3.3H343c2.5,0,3.7,1.1,3.7,3.3v0.1c0,2.3-1.2,3.5-3.7,3.5h-4.2V200h-8
			v-18.9h-4.3C324.1,181.1,322.8,179.8,322.8,177.6"/>
		<path class="st1" d="M350.9,196v-17.4c0-2.9,1.4-4.4,4.1-4.4h17.3v6.9h-13.4v2.6h10v6.5h-10v3h13.4v6.9H355
			C352.6,200,350.9,198.7,350.9,196"/>
		<path class="st1" d="M385.4,186.2h3.4c2.4,0,3.6-1.1,3.6-3c0-2-1.2-3-3.7-3h-3.3V186.2L385.4,186.2z M390.7,196.8l-3.7-4.9h-1.4
			v8.1h-8v-21.4c0-2.9,1.4-4.4,4.1-4.4h8c7.2,0,10.8,3,10.8,8.5c0,3.8-2,6.5-5.6,7.6l5.8,7.2c0.2,0.3-1.2,2.8-4.6,2.8
			C393.6,200.2,392.3,199.1,390.7,196.8"/>
		<path class="st1" d="M405.5,177.7c0-2.5,1.2-3.7,3.3-3.7h0.8c1.9,0,2.5,0.6,3.6,1.9l9.3,12.1v-13.8h7.5v22.3
			c0,2.5-1.2,3.7-3.2,3.7h-0.6c-1.9,0-2.5-0.5-3.5-1.8l-9.5-12.3V200h-7.5V177.7L405.5,177.7z"/>
		<path class="st1" d="M444.6,188.9h5.6l-2.8-7.5L444.6,188.9L444.6,188.9z M451.6,194.6h-8.3l-2,5.3h-8l9.2-23.8
			c0.4-1.3,1.5-2.2,5.1-2.2c3.6,0,4.5,0.9,4.9,2.2l9.6,23.8h-8.3L451.6,194.6L451.6,194.6z"/>
		<path class="st1" d="M463.7,177.6v-0.1c0-2.2,1.3-3.3,3.7-3.3h16.6c2.5,0,3.7,1.1,3.7,3.3v0.1c0,2.3-1.2,3.5-3.7,3.5h-4.2V200h-8
			v-18.9h-4.4C464.9,181.1,463.7,179.8,463.7,177.6"/>
		<path class="st1" d="M492.1,177.4c0-2.3,1.4-3.4,3.4-3.4h1.2c2.1,0,3.5,1.1,3.5,3.4V200h-8V177.4L492.1,177.4z"/>
		<path class="st1" d="M524.5,187c0-3.8-2.3-6.4-5.7-6.4c-3.5,0-5.7,2.5-5.7,6.4c0,3.8,2.3,6.4,5.7,6.4
			C522.3,193.4,524.5,190.9,524.5,187 M505.2,187c0-7.8,5.7-13.5,13.7-13.5c8,0,13.6,5.6,13.6,13.5c0,7.9-5.7,13.5-13.6,13.5
			C510.9,200.5,505.2,195,505.2,187"/>
		<path class="st1" d="M537.3,177.7c0-2.5,1.2-3.7,3.3-3.7h0.8c1.9,0,2.5,0.6,3.6,1.9l9.3,12.1v-13.8h7.5v22.3
			c0,2.5-1.2,3.7-3.2,3.7h-0.6c-1.9,0-2.5-0.5-3.6-1.8l-9.5-12.3V200h-7.5V177.7L537.3,177.7z"/>
		<path class="st1" d="M576.3,188.9h5.6l-2.8-7.5L576.3,188.9L576.3,188.9z M583.3,194.6H575l-2,5.3h-8l9.2-23.8
			c0.4-1.3,1.5-2.2,5.1-2.2c3.6,0,4.6,0.9,5,2.2l9.6,23.8h-8.3L583.3,194.6L583.3,194.6z"/>
		<path class="st1" d="M596.9,177.7c0-2.5,1.2-3.7,3.4-3.7h1.2c2.3,0,3.5,1.2,3.5,3.7V193h7.9c2.5,0,3.7,1.1,3.7,3.3v0.1
			c0,2.3-1.2,3.5-3.7,3.5h-15.9V177.7L596.9,177.7z"/>
		<path class="st1" d="M60,69c-1.9,1.1-10.3,10.1-11.3,11.6c-0.5,0.7-2.1,3.5-2.2,3.6c-0.2,0.3-1.5,1.9-1.7,2.1
			c-0.2,0.2-1.1,3-1.3,3.3c-0.4,0.6-1.9,1.9-2,2.3c-0.1,0.2,0.7,1.9-1.4,3.6c-1.4,1.2-2.4,5.7-2.5,6c-0.3,0.8-2.1,2.9-1.8,4.8
			c0.1,0.8-0.4,1.6-0.8,2.3c-0.3,0.7-0.2,2.9-1.6,3.4c-1.2,0.4-0.8,2.4-0.4,3c0.9,1.7,0.2,3.3,0.2,3.5c0,0.1-0.4,1.6,0.2,2.6
			c1,1.4-0.1,3.6-0.1,4.4c-0.3,4.1,2.6,5.3,1.8,7.8c-0.5,1.5,0.5,2.8,0.3,4.3c-0.2,1.3,0.8,1.8,1,2.2c0.1,0.2,1,2.3,0.9,2.7
			c-0.4,2.2,3,5.5,2.8,8.8c-0.2,2.8,3.2,4,3.4,4.3c1.6,2,1.6,4.3,3.4,5.5c0.2,0.1,2,1.5,2.3,1.7c1.1,0.6,0.1,1.3,0.2,1.7
			c1.4,3.1,4.4,5.1,4.4,5.1c7.2,8.2,24.2,19,25.9,19.2c1.6,0.2,3.2,0.5,4.5,1.6c1.4,1.1,7.5,3.3,7.5,3.3c0.9,0.4,1.8,0.3,2.7,0.6
			c0.8,0.3,6.1,2.2,6.9,2.5c1.1,0.4,2.3,1.1,6.3,2.1c1.7,0.4,3.5,1.4,5.2,1.7c2,0.4,3.7-1.3,5.4-0.3c1.8,1.1,4.4,1.9,5.6,2
			c8.5,1.9,20.6,2.2,29.2,2c0,0,2.7,0.6,5.7,0c3-0.2,6.4-1.2,9.4-1.3c4.3-1.2,9.4-2.3,13.5-4.3c1.4-0.3,3-1.9,3.9-2
			c2-0.8,4.8-3.3,5.1-3.5c0.3-0.2,2.9-1.8,2.9-1.8s0.9-0.6,1.8-1.1c0.6-0.5,7.6-6.1,7.6-6.1c0.6-1.2,1.9-1.6,2.9-2.4
			c0.1-0.2,0.2-0.3,0.4-0.5c0.4-0.4,0.9-0.7,1.3-0.9c0.2-0.1,0.4-0.3,0.6-0.4c0.1-0.1,0.2-0.2,0.2-0.3c0.1-0.1,0.1-0.3,0.2-0.4
			c0.1-0.1,0.1-0.1,0.2-0.1c0.1,0,0.2,0.1,0.3,0.1c0.1,0,0.1-0.2,0.2-0.2c0.1-0.2,0.2-0.2,0.3-0.3c0.2-0.1,0.1-0.4,0-0.5
			c-0.1-0.1-0.3-0.2-0.4-0.4c-0.1-0.3,0.2-0.5,0.5-0.7c0.2-0.1,0.5-0.1,0.8,0.1c0.2,0.1,0.3,0.4,0.5,0.5c0.2,0.1,0.4-0.2,0.4-0.4
			c0-0.2,0-0.2,0.1-0.4c0.2-0.3-0.3-0.2-0.4-0.3c-0.1-0.1,0.1-0.2,0.1-0.3c0.1-0.3-0.3-0.4-0.5-0.4c-0.3,0-0.5,0.1-0.7,0.3
			c-0.1,0.1-0.2,0.2-0.3,0.3c-0.1,0-0.2,0-0.2,0.1c0,0,0,0.2,0,0.2c0,0.1-0.2,0.1-0.3,0.1c-0.1,0-0.3,0-0.4,0
			c-0.2,0-0.4,0.1-0.5,0.1c-0.1,0-0.2,0.1-0.3,0.2c-0.2,0.1-0.3,0.1-0.5,0.1c-0.5,0-0.9,0.3-1.3,0.5c-0.3,0.2-0.7,0.4-1,0.4
			c-0.1,0-0.3,0-0.5,0c-0.1,0-0.2-0.1-0.3,0c-0.1,0.1-0.2,0.2-0.3,0.3c-0.1,0.1-0.2,0.1-0.3,0.2c-0.1,0.1-0.1,0.3-0.2,0.4
			c-0.1,0.2-0.3,0.3-0.5,0.3c-0.5,0.1-1.1-0.1-1.5-0.4c-0.5-0.4-0.7-1.2-0.8-1.8c0-0.2,0-0.5-0.5-0.5c-0.2,0-0.3,0.3-0.4,0.4
			c-0.5,0.7-1.3,1.1-2.1,1.3c-0.4,0.1-0.8,0.1-1.3,0.2c-0.3,0-0.7-0.2-1-0.1c-0.2,0-0.3,0.2-0.3,0.4c-0.1,0.1-0.1,0.3-0.2,0.4
			c-0.2,0.3-0.4,0.4-0.8,0.3c-0.2-0.1-0.6-0.3-0.3-0.6c0.2-0.1,0.7-0.3,0.6-0.6c-0.1-0.2-0.3,0-0.5,0c-0.2,0.1-0.4,0.2-0.7,0.3
			c-0.4,0-0.9-0.2-1-0.6c0-0.1,0-0.2,0-0.2c0-0.1,0.1-0.1,0.2-0.2c0.1,0,0.2-0.1,0.3-0.2c0.1-0.1-0.1-0.3-0.1-0.4
			c0-0.1,0.4-0.4,0.5-0.5c0.2-0.3,0.3-0.5,0.6-0.7c0.3-0.1,0.9,0,1-0.3c0.1-0.4,0.1-0.7,0.3-1.1c0.3-0.4,0.6-0.4,0.3-0.8
			c-0.4-0.6-1,0-1.5,0.2c-0.2,0.1-0.5,0.4-0.7,0.4c-0.4,0-0.2-0.3,0-0.5c0.2-0.2,0.5-0.4,0.6-0.6c0.2-0.3,0.3-0.7,0.8-0.6
			c0.2,0,0.5,0.1,0.7-0.1c0.3-0.4,0-0.8-0.4-0.8c-0.5,0-1,0.2-1.4,0.4c-0.3,0.2-0.7,0.5-1,0.8c-0.3,0.2-0.6,0.5-1,0.3
			c-0.1-0.1-0.1-0.1-0.3-0.1c-0.2,0-0.5,0.2-0.6,0.4c-0.4,0.3-0.9,0.5-1.1-0.2c0-0.2,0.4-0.4,0.6-0.5c0,0,1.1-0.2,1.3-0.2
			c0.3-0.1,1-0.2,1.2-0.5c0.1-0.1,0.1-0.2,0.2-0.3c0.5-0.5-0.2-1.3-0.8-0.9c-0.4,0.3-0.7,0.7-1.1,1c-0.3,0.2-0.6,0.5-1,0.5
			c-0.3,0-1-0.3-0.7-0.7c0.1-0.2,0.5-0.2,0.7-0.3c0.3-0.1,0.4-0.4,0.6-0.6c0.4-0.3,0.8-0.6,1.3-0.7c0.3,0,0.8-0.1,0.8-0.5
			c0-0.2-0.2-0.3-0.4-0.3c-0.3,0-0.4,0.1-0.7,0.1c-0.4-0.1-0.8-0.1-1.1-0.3c-0.2-0.2-0.1-0.7-0.5-0.7c-0.6-0.1-0.2,0.3-0.4,0.6
			c-0.2,0.3-1.2,0.6-1.4,0.1c-0.2-0.4,0.4-0.9,0.7-1c0.3-0.1,0.7-0.3,1-0.3c0.2,0,0.3,0,0.4-0.1c0.1-0.1,0.2-0.5,0.5-0.6
			c0.2,0,0.3-0.4,0.1-0.5c-0.2-0.1-0.4,0.1-0.6,0.1c-0.2,0-0.4,0-0.5,0c-0.4,0.1-0.4,0.5-0.6,0.7c-0.2,0.3-0.6,0.5-0.9,0.5
			c-0.4,0.1-0.5-0.4-0.9-0.5c-0.5-0.2-0.4,0.4-0.5,0.6c-0.1,0.4-0.5,0.4-0.8,0.5c-0.3,0.1-0.5,0.4-0.8,0.7c-0.7,0.6-1.5,0.5-2.3,0.7
			c-0.7,0.2-0.5,0.3-0.8,0.5c-0.6,0.4-1.4-0.3-2,0c-0.1,0-0.4,0.3-0.5,0.3c-0.2,0.1-0.2-0.2-0.4-0.2c-1,0-1.3-0.2-1.5-0.2
			c-0.3,0.1-0.5,0.3-0.7,0.5c-0.3,0.4-1.2,0.8-1.4,0.8c-0.3,0-0.4-0.3-0.6-0.5c-0.2-0.2-0.4-0.2-0.7,0c-0.3,0.2-0.3,0.7-0.5,0.8
			c-0.2,0.1-0.6,0.1-0.5-0.2c0.1-0.1,0.2-0.2,0.3-0.4c0.1-0.2,0-0.3-0.2-0.3c-0.1,0-0.4,0.2-0.5,0.3c-0.3,0.1-0.7,0.1-1,0
			c-0.1-0.1-0.3-0.1-0.4-0.1c-0.1,0-0.2-0.2-0.4-0.2c-0.2,0-0.3,0.3-0.5,0.4c-0.3,0.1-0.5,0-0.8-0.1c-0.2-0.1-0.4-0.2-0.6-0.1
			l-0.5,0.4c-0.3,0.1-0.7,0-1,0c-0.2,0-2.1,0.1-2.9,0.2c-1.3,0.2-2.5,0.7-3.8,0.9c-1.3,0.2-7.1,0.4-8,0.4c-0.8,0-4.5-0.2-4.9,0.2
			c-0.1,0.1-0.9,0-1.1,0c-0.3,0-0.3-0.4-0.6-0.6c-0.8-0.3-0.2,0.5-1.1-0.2c-0.6-0.4-1.5-0.3-2.5-0.2c-1.7,0-4.5-0.4-5.1-0.5
			c-1-0.1-2.1-0.6-2.7-1.3c-0.5-0.6-1.4-0.8-1.5-1.6c-0.3-2.1,0.5-5.2,0.7-6c0.2-0.9,0.4-4.1,0.7-4.3c0.2-0.1,0-0.3,0.2-0.4
			c1.2-1.1,0.7-1.2,1-2.3c0.4-1.9,1.1-4.8,3.3-5.3c1-0.3,2.3-0.9,3-1.1c0.9-0.3,2.6-0.1,4-0.7c0.3-0.1,0.5-0.3,0.8-0.3
			c1.3-0.1,2.6,0.3,3.9,0.1c1.3-0.2,2.7-0.3,3-0.2c0.5,0.1,0.1-0.4,0.3-0.5c0.6-0.2,0.6,0.6,1.3,0.7c0.5,0.1,2.7,0.3,3.3,0.3
			c0.1,0,0-0.3,0.1-0.4c0.4-0.4,0.8,0.4,1,0.6c0.6,0.5,10.1,1.5,10.7,1.7c1.1,0.2,2.7,0.1,4-0.5c0.6-0.3,2.6-1.2,3-1.6
			c0.2-0.2-0.1-0.4,0-0.6c0.4-0.4,0.8-1.2,0.6-2.2c0-0.3,0.1-0.6,0.2-0.8c0.2-0.4-0.1-0.7-0.1-1.2c0-0.4,0.1-0.9,0.4-1.2
			c0.5-0.5,0.5-1.2,0.3-1.5c-0.4-0.7-1.1-1.1-1.3-1.2c-0.4-0.2,0,0,0-0.5c0-0.2-0.7-0.1-0.7-0.1s-1.4-0.1-1.9-0.2
			c-1.3-0.5-2.5-0.6-3.9-0.6c-2.1,0-4.2-0.9-6.3-0.7c-0.4,0-1.1,0.2-1.3,0.2c-0.4,0,0-0.6-1.3-0.6c-1.2,0-2.4-0.3-3.6-0.6
			c-1-0.3-4.1-0.1-4.4-0.3c-0.2-0.1-0.4-0.1-0.7-0.1c-0.4-0.1-0.6-0.8-1.6-0.8c-0.2,0-0.4-0.3-0.6-0.3c-0.4,0-1,0.2-1.2,0
			c-0.4-0.3-1.3-0.5-1.4-1.1c-0.3-1.1,1.9-2.5,2.7-3c0.7-0.5,1.4-1.3,2.3-1.2c0.5,0,0.8-0.3,1.1-0.8c0.8-0.9,3.7-4.8,4.6-5.6
			c1-0.8,0.2-1.8,1.5-2.7c0.4-0.3,0.9-1.6,1-1.9c0.6-1.1,0.4-3,1.6-3.8c0.1-0.1,0.3-0.4,0.5-0.9c0.2-0.4-0.2-0.8-0.3-0.9
			c-0.2-0.3-0.1-0.8-0.1-1.2c0-0.3-0.1-2.8-0.1-3.3c0-0.8,0.3-1.1,1.1-1.1c0.5,0,0-1.1-0.1-1.5c-0.2-1-1.2-2.4-2.8-2.6
			c-1.9-0.2-3.3,1.2-4.5,2.5c-0.8,0.9-2.9,4-3.3,4.2c-0.6,0.4,0,0.7-0.8,1.6c-0.2,0.3-0.7,0.2-0.9,0.5c-0.3,0.4-0.8,1.3-0.8,1.7
			c0,0.3,0.1,0.7-0.2,0.9c-0.8,0.7-1-0.2-1.4,0c-0.3,0.2-0.4,0.6-0.6,0.7c-0.9,0.8-1.1,1.1-2,1.3c-0.5,0.1-1.6,0.2-2,0.8
			c-0.2,0.4-1.4,0.5-1.4-0.3c0-0.6,0.6-2.6,0.6-2.8c0.3-1-1.3-1.6-0.6-2.6c0.4-0.5,0.4-1.1,0-1.7c-0.1-0.2-0.4-1.3-0.6-1.5
			c-0.5-0.6,0.2-0.8-0.4-1.6c-0.3-0.5-0.8,0.3-0.9-0.9c-0.1-0.7-0.8-1-1.2-1.3c-0.5-0.5-1.1-1-1.6-1.4c-1.5-1.1-3.3-1.8-5.1-2.2
			c-1.8-0.4-3.7-0.5-5.6-0.2c-0.5,0.1-1.2,0-1.2-0.4c0-0.1-0.2-0.1-0.3-0.2c-0.4-0.2-1.1,0.1-1.5,0.3c-1.2,0.5,0,1-0.7,1.2
			c-0.9,0.3-3.1,1-3.7,1.1c-0.3,0.1-0.7,0.2-1.4,0.2c-0.6,0-0.6,0.5-1.4,0.9c-1.5,0.7-1.1,4.1-1.1,5c0,0.2,0.1,0.6,0.4,0.5
			c0.3-0.1,0.7,0.3,0.6,1c-0.1,0.7-0.1,1.1-0.3,2c-0.3,0.9,0.3,0.4,0.3,1.3c0,0.6,0.8,2.9,0.7,3.5c0,0.2,0.2,0.4,0.3,0.6
			c0.1,0.2,0.2,0.2,0.3,0.2c0.4,0.1,0.4,0.9,0.7,1.7c0.2,0.6,0.4,1.3,0.9,1.7c0.3,0.2,0.3,0.6,0.5,0.8c0.2,0.3,0.4,0.5,0.2,0.7
			c-0.2,0.2-0.9,0.8-1.2,0.7c-0.4-0.2-1.7-0.3-2.1-0.4c-0.8-0.3-1.9,0.2-2.1,0c-0.3-0.3-0.7-0.3-1.1-0.4c-0.4-0.1-0.4,0.3-0.6,0.3
			c-0.4-0.1-0.5-0.4-0.7-0.7c-0.6-0.6-1.4-0.7-2.2-1c-1-0.4-2.1-0.8-3-1.4c-1-0.7-4.3-1.9-4.5-2.3c-0.2-0.5-1.2-0.3-1.3-0.4
			c-0.1-0.4-1-0.5-1.1-0.7c0-0.4-0.7-0.3-1-0.5c-0.2-0.2-0.8-0.5-1-0.3c-0.3,0.2-0.7,0.3-1,0.1c-0.2-0.2-0.3-0.3-0.6-0.4
			c-0.7-0.2-1.1,0.1-1.6,0.5c-0.6,0.5-1.2,1-1.7,1.5c-0.3,0.4-0.4,0.8-0.6,1.2c-0.2,0.4-0.5,0.6-0.7,1c-0.2,0.4-0.2,0.9,0.4,1
			c0.6,0.1,0,0.6,0.5,0.8c0.6,0.3,0.9,1.5,1.7,2.3c1,0.9,1.3,2.3,1.6,2.9c0.4,0.8,1.9,0.2,2.2,1.2c0.1,0.4,1,1.2,2.6,2.6
			c0.6,0.5,3,1.8,4,1.9c2.5,0.3,3.6,1.4,4.6,2.2c0.5,0.3,1.4,0.1,2.5,2.1c0.4,0.8,0.6,3.5,0.9,4.8c0.5,2.9,1.6,2.5,1.1,3.5
			c-0.7,1.3,0.5,2.9,0.5,6.2c0,0.8-0.4,2.1-0.8,3c-0.8,1.9,0.5,4.3,0.2,5.1c-0.5,1.1-0.7,5.2-1.6,6.1c-0.4,0.4-1.1,0.3-1.6,0
			c-0.9-0.4-3.7,0.3-4.3-0.3c-1.2-1.1-2.7-0.9-3.6-1.1c-0.8-0.1-1.8-0.7-2.4-1c-1.2-0.6-6.2-2.4-8-3.3c-4.6-2.4-10.8-5.1-11.3-7.5
			c-0.2-1-7-5.4-8.1-6.9c-0.6-0.8-1.8-2.1-2-2.5c-0.3-0.5-0.4-1.8-0.8-2.3c-0.9-1.2-2-1.4-2.4-3.7c-0.2-0.9-0.8-0.4-1.7-2.8
			c-2.5-6.3-2.2-13.5-2.1-16.2c0.1-2.3,2.1-7.5,2.7-9.3c0.4-1.1,1.7-1.8,2-3.7c0.1-0.6,3-2.6,4-4.3c0.9-1.5,2.9-3.3,4.3-4.2
			c0.8-0.5,11.5-8.4,12.5-9.5c0.4-0.4,1.4-2,3.6-2c0.5,0,1.7-0.8,1.8-1.2c0.2-1.2,11.2-3.8,13-5.7c0.5-0.6,3.9-1.5,5.5-1.9
			c0.5-0.1,0.4,0.5,1.4-0.5c0.8-0.7,2.6,0.5,3.6-0.5c1.3-1.3,1.7-1.6,4.2-1.5c2.6,0,2.2-1.3,4.2-1.5c1.1-0.1,2.9-0.7,3.5-1.8
			c0.4-0.8,5.2-1.2,6.2-1.9c2.3-1.7,4,0.2,6.8-0.4c0.3-0.1,1.6,0.3,2.2,0.3c0.7-0.1,1.7-1,2.1-0.2c0.2,0.5,4.6,0.3,5.6,0.2
			c0.3,0,1-0.4,0.9-0.1c-0.1,0.5,2.7,0.3,3.3,0.7c0.7,0.6,1.9,1.3,3.4,0.8c0.9-0.3,4.1,0.3,5.3,0.7c0.8,0.3-0.6,0.8,2.4,0.9
			c2,0.1,8.8,4.1,10.2,4.4c1.7,0.1,2.2,1.9,3.9,2.5c3.1,1.2,7,3.9,14.8,10c0.4,0.3,0.8,1.6,1.2,1.6c2-0.1,3.9,3.7,4.8,4.8
			c0.3,0.3,1.6-0.5,1.4,1.8c0,0.4,1-0.2,1.1,1.4c0,1.8,3.3,2.8,4,6.8c0.1,0.4,0.5,0.7,0.7,1.1c0.6,1.4,2.7,8,2.7,10.4
			c0,0.7,0.4,5.1-0.3,8.3c-0.6,2.9-1.7,5.6-2.7,8.3c-0.7,1.7-2.2,3.9-2.3,4.5c-0.1,0.6-0.5,1.2-0.4,1.8c0.1,0.4,0.1,1-0.3,1.1
			c-0.5,0.2-1.2,0.6-1.3,1.3c0,0.4-1,0.5-1,0.9c0.1,0.6-1.1,0.6-1.1,1.2c0,0.4-1,0.7-0.8,1.3c0.1,0.3-0.4,0.3-0.8,0.5
			c-0.5,0.2-1.4,1.6-1.4,1.9c0,0.3-0.5,0.1-0.6,1c0,0.6-0.6,0.6-0.9,1.1c-0.3,0.4-0.6,0.5-0.7,0.6c-0.2,0.3-0.3,0.8-0.2,1.2
			c0,0.4-0.7,1.6,0.1,1.6c0.3,0,0.5-0.4,0.7-0.6c0.3-0.3,0.8-0.6,1.2-0.8c0.5-0.3,1.2-0.4,1.5-1c0.1-0.3,0.5-0.9,0.9-1
			c0.1,0,0.3,0,0.4-0.1c0.1-0.1,0.2-0.2,0.3-0.3c0.2-0.3,0.5-0.6,0.7-0.9c0.1-0.2,0.5,0,0.6-0.3c0.1-0.2-0.1-0.3,0.1-0.4
			c0.2-0.1,0.4-0.1,0.5-0.2c0.1-0.1,0.2-0.2,0.4-0.4c0.3-0.2,0.6-0.4,0.9-0.2c0.5,0.3-1.1,1.6-1.2,1.7c-0.4,0.4-0.5,1-0.9,1.4
			c-0.3,0.3-0.6,0.7-0.9,1c-0.1,0.1-0.3,0.2-0.4,0.3c-0.1,0.1-0.2,0.3-0.2,0.4c-0.2,0.3-0.4,0.4-0.6,0.6c-0.2,0.2-0.3,0.5-0.5,0.7
			c-0.3,0.3-0.4,0.6-0.3,1c0.1,0.3,0.3,0.4,0.6,0.3c0.3-0.1,0.4-0.4,0.5-0.6c0.1-0.2,0.3-0.4,0.5-0.6c0.2-0.2,0.5-0.3,0.7-0.4
			c0.2-0.1,0.3-0.3,0.4-0.5c0.3-0.5,0.7-0.9,1-1.4c0.2-0.2,0.4-0.6,0.7-0.7c0.2,0,0.4,0,0.5-0.2c0.1-0.2,0-0.5,0.3-0.5
			c0.3,0,0.2,0.3,0.3,0.5c0,0.2,0.1,0.3,0.3,0.3c0.3,0,0.4-0.1,0.5-0.4c0.1-0.2,0.3-0.5,0.5-0.6c0.2-0.1,0.5-0.2,0.7-0.4
			c0.3-0.3,0.6-0.6,0.9-0.9c0.2-0.2,0.4-0.4,0.6-0.7c0.2-0.2,0.3-0.5,0.6-0.6c0.2-0.1,0.3,0,0.5,0c0.2,0,0.2,0,0.2-0.2
			c0.1-0.1,0.2-0.3,0.3-0.2c0.3,0,0.3,0.4,0.3,0.7c0,0.1,0,0.3,0,0.4c0.1,0.1,0.3,0.1,0.4,0.1c0.2,0,0.4,0,0.3,0.2
			c0,0.2-0.2,0.3-0.3,0.4c-0.3,0.3-0.6,0.6-0.9,0.9c-0.1,0.1-0.3,0.3-0.4,0.4c-0.4,0.5-0.8,0.9-1.2,1.4c-0.3,0.4-0.6,0.8-1,1.1
			c-0.2,0.2-0.4,0.5-0.6,0.6c-0.3,0.2-0.4,0.5-0.5,0.8c-0.2,0.4-0.5,0.6-0.8,0.9c-0.1,0.2-0.1,0.4-0.2,0.6c-0.1,0.3-0.2,0.4-0.4,0.5
			c-0.4,0.4-0.7,0.9-0.8,1.5c-0.1,0.2,0,0.7,0.3,0.4c0.2-0.2,0.2-0.4,0.4-0.5c0.2-0.1,0.4-0.1,0.6-0.2c0.3-0.1,0.6-0.3,0.7-0.6
			c0.1-0.2,0.1-0.6,0.3-0.8c0.1-0.1,0.4-0.1,0.6-0.2c0.2-0.1,0.5-0.1,0.8-0.2c0.2,0,0.5-0.1,0.7-0.2c0,0,0,0,0.1-0.1
			c0,0,0.1-0.1,0.1-0.1c0-0.1,0.1-0.2,0.1-0.3c0-0.1-0.1-0.2,0-0.3c0.1-0.1,0.2-0.2,0.2-0.3c0-0.2-0.1-0.3-0.3-0.4
			c-0.2-0.1-0.5-0.3-0.6-0.6c0-0.2,0.1-0.3,0.2-0.4c0.1-0.1,0.1-0.3,0.1-0.4c0-0.1,0-0.2,0-0.3c0-0.1,0.1-0.2,0.1-0.3
			c0.1-0.1,0.2-0.3,0.3-0.3c0.3-0.1,0.4,0.3,0.7,0.3c0.2,0,0.4,0,0.6,0c0.2,0,0.5,0,0.7,0c0.2,0,0.4,0,0.5-0.2
			c0.1-0.1,0.1-0.2,0.1-0.3c0-0.2-0.3-0.3-0.3-0.5c0-0.2,0.1-0.4,0.2-0.5c0.1-0.2,0.3-0.3,0.5-0.2c0.4,0.1,0.9,0.6,1.3,0.4
			c0.2-0.1,0.2-0.3,0.1-0.4c0-0.1-0.1-0.1-0.2-0.2c-0.1-0.1-0.1-0.1-0.1-0.2c-0.1-0.3,0-0.6,0.2-0.9c0.2-0.2,0.4-0.5,0.7-0.6
			c0.1-0.1,0.3-0.1,0.4-0.2h0.1c0.2,0,0.3,0.2,0.3,0.4c0,0.2,0,0.4-0.1,0.6c-0.1,0.3-0.4,0.6-0.1,0.8c0.2,0.2,0.6,0.2,0.9,0.2
			c0.1,0,0.3,0,0.4,0c0.1,0,0.3,0,0.4,0c0.2,0.1,0.3,0.4,0.2,0.5c-0.1,0.3-0.3,0.5-0.4,0.7c-0.2,0.3-0.5,0.5-0.8,0.6
			c-0.2,0.1-0.4,0.1-0.6,0.2c-0.3,0.1-0.5,0.2-0.6,0.4c-0.1,0.3,0,0.4,0.3,0.4c0.3,0,0.6,0.2,0.6,0.6c0,0.6-0.5,0.9-1,1.2
			c-0.2,0.1-0.4,0.2-0.6,0.4c-0.1,0.1-0.2,0.2-0.2,0.3c0,0-0.2,0.4-0.2,0.4c-0.2,0.1-0.4-0.2-0.6-0.3c-0.1-0.1-0.2-0.1-0.3,0
			c-0.1,0-0.1,0.1-0.1,0.2c-0.1,0.1-0.2,0.1-0.2,0.2c0,0.1,0,0.2,0,0.3c0,0.2,0,0.4,0,0.6c0,0.1-0.2,0.3-0.1,0.4
			c0.1,0.2,0.4,0.1,0.5,0c0.1-0.1,0.2-0.3,0.3-0.4c0.2-0.2,0.5,0.3,0.4,0.5c0,0.2-0.2,0.2-0.2,0.4c-0.1,0.2,0.1,0.3,0.2,0.4
			c0.3,0.1,0.9-0.3,0.9-0.6v0c0-0.2-0.3-0.5,0-0.6c0.2,0,0.3,0.1,0.5,0.2c0.1,0.1,0.3,0.2,0.4,0.2c0.2,0,0.3-0.3,0.4-0.4
			c0.2-0.2,0.5-0.4,0.7-0.5c0.4-0.2,0.9-0.3,1.1-0.6c0.3-0.4,0.6-0.9,0.7-1.4c0.1-0.2,0.1-0.5,0.3-0.6c0.4-0.4,1-0.2,1.3-0.6
			c0.2-0.1,0.2-0.3,0.3-0.5c0-0.2,0.1-0.3,0.2-0.5c0.1-0.2,0.1-0.4,0.1-0.6c0-0.2,0.1-0.4,0.3-0.5c0.2-0.1,0.4-0.1,0.6,0
			c0.3,0.2,0.7-0.1,1,0.1c0.3,0.3,0,0.7-0.3,0.9c-0.7,0.5-0.6,1.5-1.2,2c-0.2,0.2-0.6,0.2-0.8,0.4c-0.3,0.3-0.2,0.9-0.5,1.2
			c-0.1,0.1-0.4-0.1-0.5,0c-0.1,0.1-0.1,0.2-0.2,0.3c0,0.1,0,0.2,0,0.3c-0.1,0.1-0.4,0.4-0.2,0.6c0.1,0.1,0.3,0.1,0.4,0.1
			c0.2,0,0.2,0,0.4-0.2c0-0.1,0.1-0.2,0.2-0.1c0.1,0,0.2,0.1,0.2,0.2c0.1,0,0.2,0.2,0.2,0.1c0.1,0,0.1-0.2,0.1-0.3
			c0-0.1,0.1-0.2,0.3-0.2c0.1,0,0.1,0.1,0.1,0.1c0.1,0.2,0.4,0.1,0.6,0c0.1-0.1,0.2-0.2,0.3-0.3c0.2-0.2,0.4-0.5,0.5-0.8
			c0.2-0.2,0.4-0.5,0.7-0.6c0.2-0.1,0.3-0.1,0.5-0.1c0.2-0.1,0.4-0.2,0.5-0.4c0.3-0.3,0.7-0.3,1-0.6c0.2-0.1,0.5-0.4,0.5,0
			c0,0.1,0,0.2,0,0.2c0,0.1,0.1,0.1,0.1,0.2c0,0.4-0.7,0.5-0.8,0.8c0,0.1,0,0.3,0,0.4c-0.1,0.4-0.5,0.3-0.8,0.5
			c-0.4,0.2-0.7,0.7-0.9,1.1c-0.1,0.2-0.1,0.2,0,0.4c0.1,0.1,0.2,0.2,0.2,0.4c-0.1,0.1-0.3,0-0.4,0c-0.4,0.1-0.2,0.4-0.3,0.6
			c-0.1,0.2-0.4-0.2-0.5,0.3c-0.1,0.2,0,0.5-0.1,0.7c-0.1,0.3-0.4,0.4-0.7,0.6c-0.1,0-0.1,0-0.2,0.1c-0.1,0-0.1,0.1-0.2,0.2
			c-0.1,0.1,0,0.2-0.1,0.4c0,0.1-0.1,0.2-0.2,0.2c-0.1,0.1-0.3,0.3-0.4,0.4c0,0.1,0,0.2,0.1,0.2c0.1,0,0.2,0,0.2-0.1c0,0,0,0,0.1,0
			c0,0,0.1,0,0.1,0c0.1,0,0.1-0.1,0.2-0.1c0.1-0.1,0.2-0.1,0.3-0.2c0.1-0.1,0.3-0.1,0.4-0.2c0.5-0.4,0.9-0.8,1.3-1.2
			c0.4-0.5,0.8-1,1.2-1.5c0.2-0.2,0.4-0.5,0.7-0.5c0.5-0.1,0.4,0.4,0.2,0.6c-0.1,0.1-0.1,0.3-0.2,0.4c-0.1,0.1-0.2,0.1-0.3,0.1
			c-0.1,0.1-0.2,0.3-0.3,0.4c-0.2,0.3-0.3,0.7-0.6,0.9c-0.2,0.2-0.4,0.2-0.6,0.4c-0.2,0.2-0.2,0.5-0.4,0.7c-0.1,0.2-0.1,0.4,0.2,0.5
			c0.4,0.1,0.4-0.3,0.6-0.5c0.2-0.2,0.6-0.3,0.9-0.4c0.3-0.2,0.3-0.4,0.4-0.7c0-0.1,0.3-0.5,0.4-0.5c0-0.3,0.3-0.3,0.5-0.5
			c0.1-0.1,0-0.2,0.2-0.2c0.3-0.1,0.7-0.2,0.6,0.2c0,0.3-0.3,0.5-0.4,0.7c-0.4,0.6-0.9,1.1-1.2,1.7c-0.3,0.6-0.2,1.2-0.6,1.8
			c-0.2,0.3-0.4,0.6-0.7,0.9c-0.2,0.2-0.6,0.3-0.8,0.6c-0.2,0.2-0.4,0.5-0.6,0.8c-0.3,0.4-0.7,0.6-1.1,0.9c-0.2,0.1-0.3,0.3-0.4,0.4
			c-0.2,0.2-0.4,0.4-0.6,0.6c-0.2,0.2-0.2,0.5-0.4,0.7c-0.2,0.3-0.5,0.4-0.5,0.8c-0.2,0-0.2,0-0.4,0.1c-0.1,0.1-0.2,0.1-0.2,0.2
			c-0.1,0.1-0.2,0.3-0.3,0.4c-0.1,0.1-0.3,0.3-0.3,0.4c0.1,0.4,1.4-0.7,1.5-0.8c0.4-0.4,0.8-0.8,1.2-1.2c1-1,2-2,2.9-3
			c0.8-0.9,1.6-1.8,2.4-2.8c0.3-0.4,0.8-0.9,1-1.3c0.2-0.3,0.3-0.9,0.6-1.1c0.2-0.1,0.6,0,0.9-0.1c1.1-0.5,1.8-2.1,2.6-3
			c2.1-2.5,4.8-8.5,5-9.2c0.2-0.5,0.3-1.7,1.5-1.9c0.7-0.2,0.6-1.7,0.7-2.4c0.2-0.9,0.3-1.9,0.9-2.6c1-1.2,1-3.3,1.2-4
			c0.3-1.4,3-10.7,2.3-18.2c-0.1-1.5-0.1-10.1-2.5-12.8c-1.5-1.7,0.2-3.8-0.8-6.5c-0.2-0.7,0.8-1,1-1.6c0.6-2.2-0.7-3.9-1.8-4.2
			c-1-0.2-2.3-0.2-2.7-1.4c-0.2-0.5,0.7-2.5-0.4-4.6c-0.5-1-1.4-3.4-8.3-8.7c-2.3-1.8-4-4.2-6-6.3c-0.6-1.1-4.2-4.3-5.1-5
			c-0.6-0.5-1.7-2.6-4.6-3.6c-1-0.4-7.6-5.7-8.4-5.9c-2.8-0.9-7.7-4.4-8.6-4.6c-4.9-1.2-6.7-4-8.6-4.2c-1.4-0.1-5.4-0.4-7.5-2.7
			c-1.1-1.3-2.8-1.5-4.3-0.7c-1,0.6-4.2-2.2-8.6-1.7c-0.9,0.1-1.8-1.5-5.2-1.1c-3.3,0.4-5.5-1.7-6.6-2.2c-1.1-0.4-8.2-2.2-11.3-2.1
			h-2c-6.8-0.9-12.7-0.9-19.2,0c-1.5,0.4-21.1,5.4-22.9,6.5c-1.5,0.9-5.6,2.2-6.7,2.7c-2.1,1-10.4,3.7-10.7,4.6
			c-0.2,0.5-1.5,0.5-1.8,0.9c-0.2,0.2-2.3,2.4-5,3.4c-1.7,0.6-9.9,6.6-11.4,7.9C65.8,65,60.9,68.5,60,69"/>
		<path class="st1" d="M247.9,93c0,0.7-0.1,1.4-0.8,1.8c-0.1,0-0.2,0-0.3,0c-0.1,0-0.2,0-0.2-0.1c-0.3-0.1-0.5-0.3-0.7-0.6
			c-0.1-0.1-0.2-0.2-0.3-0.4c-0.1-0.1-0.2-0.3-0.3-0.4c-0.1-0.2-0.1-0.4-0.1-0.5c0-0.1,0.1-0.3,0.1-0.4c0.1-0.1,0.1-0.3,0.3-0.4
			c0.1-0.1,0.3-0.2,0.4-0.2C246.9,91.8,247.7,92.1,247.9,93"/>
		<path class="st1" d="M198.9,153.4c0,0,0,0.1,0,0.1c0,0.4-0.6,0.5-0.7,0.8c-0.2,0.3-0.3,0.8-0.8,0.6c0.1-0.5,0.6-1.2,1-1.5
			C198.5,153.3,198.8,153.2,198.9,153.4"/>
		<path class="st1" d="M200.9,154.4c-0.1,0.1-0.2,0.3-0.2,0.3c-0.2,0.3-0.4,0.5-0.7,0.8c-0.1,0.1-0.1,0.2-0.2,0.3
			c-0.5,0.6-1,1.2-1.6,1.7c-0.3,0.3-0.6,0.5-0.9,0.8c-0.2,0.1-0.6,0.7-0.9,0.4c-0.2-0.2-0.1-0.5,0.1-0.7c0.1-0.1,0.3-0.3,0.4-0.4
			c0.1-0.2,0.2-0.4,0.2-0.7c0.1-0.3,0.2-0.6,0.4-0.7c0.3-0.2,0.7-0.2,1-0.3c0.3-0.1,0.5-0.3,0.7-0.6c0.1-0.1,0.1-0.2,0.1-0.3
			c0.1-0.1,0.1-0.2,0.2-0.3c0.1-0.1,0.3-0.2,0.4-0.3c0.2-0.2,0.5-0.5,0.8-0.4C200.9,154.1,200.9,154.3,200.9,154.4"/>
		<path class="st1" d="M223.1,157c0.1,0.1,0.1,0.3,0.1,0.4c0,0.2-0.3,0.3-0.4,0.3c-0.2,0.1-0.4,0.2-0.7,0.3
			c-0.2,0.1-0.5,0.1-0.7,0.2c-0.1,0-0.8,0.2-0.4,0.3c0.2,0.1,0.1,0.3-0.1,0.4c-0.2,0.1-0.5,0.1-0.7,0c-0.2-0.2,0.1-0.7,0.3-0.9
			c0.2-0.2,0.4-0.3,0.6-0.5c0.2-0.1,0.5-0.2,0.7-0.4c0.2-0.2,0.4-0.4,0.7-0.5C222.8,156.5,223,156.7,223.1,157"/>
		<path class="st1" d="M208.7,157.6C208.7,157.6,208.7,157.6,208.7,157.6c-0.2,0.1-0.5,0.1-0.6,0c-0.2-0.2,0.3-0.4,0.5-0.4
			C208.8,157.1,208.9,157.5,208.7,157.6"/>
		<path class="st1" d="M209.1,158c0.1,0.1-0.2,0.2-0.2,0.2c-0.1,0.1-0.2,0.1-0.4,0.2c-0.2,0.1-0.4,0.3-0.6,0.5
			c-0.1,0.2-0.3,0.4-0.5,0.5c0,0,0,0,0,0c0,0-0.1,0-0.1,0c-0.3,0.1-0.5,0-0.4-0.3c0.1-0.2,0.2-0.3,0.4-0.4c0.2-0.1,0.4-0.1,0.6-0.2
			c0.2-0.1,0.2-0.4,0.2-0.6c0.1-0.1,0.2,0,0.3,0c0.1,0,0.2,0.1,0.4,0.1c0.1,0,0.2,0,0.3,0C209,158,209.1,158,209.1,158"/>
		<path class="st1" d="M194.6,161.1c-0.7,0.8-1.8,1.6-2.5,1c-0.7-0.6-0.3-1.2,0.2-1.8c0.8-0.8,2.6-1.5,2.9-1.2
			C195.8,159.7,194.8,160.4,194.6,161.1"/>
		<path class="st1" d="M219.1,160.7c-0.2,0-0.2-0.4-0.2-0.5c0-0.1,0-0.2,0-0.3c0-0.1-0.1-0.2,0-0.3c0.1-0.1,0.4-0.1,0.5-0.1
			c0.2,0,0.2,0.1,0.2,0.3c0,0.2-0.2,0.3-0.3,0.5C219.3,160.4,219.3,160.6,219.1,160.7C219.1,160.7,219.1,160.7,219.1,160.7"/>
		<path class="st1" d="M205.3,160.7c-0.2,0-0.4-0.6-0.2-0.9c0.1-0.2,0.2,0,0.3,0.1c0.1,0.1,0.1,0.4,0.1,0.5
			C205.5,160.5,205.5,160.7,205.3,160.7"/>
		<path class="st1" d="M204.2,161.6c0.1-0.1,0.2-0.3,0.2-0.4c0.1-0.1,0.2-0.2,0.2-0.3c0-0.2-0.2-0.3-0.4-0.3
			c-0.2,0.1-0.4,0.2-0.6,0.3c-0.3,0.2-0.7,0.3-1.1,0.3c-0.3,0-0.5,0-0.8,0.1c-0.1,0-0.4,0.1-0.5,0.2c-0.1,0.1,0,0.4,0,0.5
			c0.1,0.5,0.8,0.4,1.1,0.4c0.3,0,0.7-0.1,1-0.3C203.8,162.1,204,161.9,204.2,161.6"/>
		<path class="st1" d="M223.8,161.7C223.8,161.7,223.9,161.7,223.8,161.7c0.1,0.1,0,0.2-0.1,0.3c-0.1,0.1-0.2,0.1-0.3,0.2
			c-0.1,0.1-0.1,0.2-0.3,0.2c-0.2,0-0.3-0.2-0.2-0.4c0.1-0.2,0.3-0.3,0.5-0.3C223.6,161.7,223.7,161.6,223.8,161.7"/>
		<path class="st1" d="M201.1,163.7h-0.1c-0.2,0-0.4-0.3-0.3-0.5c0.1-0.2,0.6-0.3,0.7,0C201.5,163.5,201.3,163.7,201.1,163.7"/>
		<path class="st1" d="M188.7,167.1L188.7,167.1c0,0.2,0.1,0.2-0.1,0.2c-0.2,0-0.5-0.3-0.5-0.5c-0.1-0.2,0-0.2,0.1-0.4
			c0.2-0.1,0.4-0.4,0.6-0.5c0.2-0.1,0.4-0.1,0.3,0.2c-0.1,0.2-0.3,0.3-0.4,0.5C188.7,166.8,188.7,167,188.7,167.1"/>
		<path class="st1" d="M221.6,169.3c0.3,0,0.1,0.9-0.3,0.8C220.9,170.1,221.3,169.2,221.6,169.3"/>
		<path class="st1" d="M219.1,170c0.3,0.6-0.2,1.3-0.7,1.6c-0.3,0.2-0.5,0.3-0.8,0.3c-0.3,0-0.5-0.2-0.6-0.5c-0.2-0.5,0.2-1,0.6-1.3
			c0.2-0.2,0.5-0.3,0.8-0.3C218.5,169.8,219,169.8,219.1,170"/>
		<path class="st1" d="M217.1,172.7c0,0.1-0.1,0.2-0.2,0.2c-0.1,0.1-0.2,0.1-0.2,0.1c-0.1,0.1-0.5,0.1-0.6,0c-0.1-0.1,0-0.2,0.1-0.2
			c0.1,0,0.2-0.1,0.3-0.2c0.1-0.1,0.2-0.1,0.4-0.1C216.9,172.6,217.1,172.7,217.1,172.7"/>
		<path class="st1" d="M158.4,73.5c0.1,0.6-0.4,1.2-0.7,1.6c-0.1,0.2-0.2,0.5-0.4,0.7c-0.2,0.2-0.4,0.3-0.6,0.4
			c-0.4,0.2-0.8,0.3-1.1,0c-0.5-0.5-0.1-0.9-0.1-1.5c-0.2-0.7,0-1.5,0.4-2.1c0.3-0.5,0.6-1.2,1.1-1.6c0.3-0.2,0.5-0.5,0.9-0.3
			C158.5,71.5,158.3,72.7,158.4,73.5"/>
		<path class="st1" d="M148.7,77c0.2,0.6,0.3,1.2,0.7,1.7c0.4,0.5,0.4,1.7,0.2,1.7c-0.6,0.1-0.5,0.5-0.7,0.5c-0.5,0-2.1,0-2.5-1.1
			c-0.2-0.4-0.2-0.7-0.2-1.1c0-0.4,0.1-1.8,0.1-2.6c-0.1-0.7,0.9-0.7,1.4-0.4C147.9,75.9,148.6,76.8,148.7,77"/>
		<path class="st1" d="M168.2,78.2c-0.2,0.7-1.4,1-0.9,1.7c0.1,0.5-0.4,0.7-0.7,0.8c-0.9,0.3-1.8,1.2-2.8,0.7
			c-0.4-0.8-1.6-0.8-1.5-1.8c0.4-0.8,1.4-0.7,1.9-1.3c0.2-0.3,3.6-0.9,4-0.3L168.2,78.2L168.2,78.2z"/>
		<path class="st1" d="M145.3,84.6c0,0.3,0,0.8-0.3,1.1c-0.5,0.5-1.3,0.5-1.6,0.6c-0.6,0.2-1.5,0-1.8,0c-0.1,0-1.2-0.5-1.3-0.7
			c-0.1-0.2-0.3-1.1-0.2-1.3c0.1-0.4,0.7-0.6,1.1-0.7c0.6-0.1,1.2-0.2,1.7,0.1c1,0.6,1.9,0.2,2.2,0.4
			C145.2,84,145.3,84.5,145.3,84.6"/>
		<path class="st1" d="M158.6,84.9c-0.1-0.3-1-1.1-1.3-1.2c-0.5-0.2-1.1-0.1-1.7-0.3c-1.1-0.4-1.8,0.7-2.7,0.8
			c-0.4,0.1-0.6,0.5-0.9,0.7c-0.9,0.6-1.6,2.9-1.8,3.5c-0.4,1.3,0.9,2.1,1.4,2.2c0.7,0,1.5-0.1,2.2-0.2c1.1-0.4,2.1-1.2,2.9-2.1
			c0.6-0.6,0.9-1.4,1.4-2.1C158.9,85.2,158.6,84.9,158.6,84.9 M162.8,89.4c-0.6,1.5-3.1,4.9-7.4,5.7c-1.6,0.3-3.5,1-4.9-0.1
			c-0.1-0.1-0.7-0.7-1.4-1c-0.7-0.3-0.9,0.1-1.5-0.4c-0.1-0.1-0.4-0.9-0.3-1.4c0.1-0.3-0.2-0.6-0.3-0.9c-0.2-0.4-0.7-1-0.6-1.6
			c0-0.2-0.2-1.4,0.4-2.3c0.2-0.3,0.8-1.5,0.2-1.7c-0.2,0-0.3-0.7,0.2-1.1c0.6-0.5,1-2.8,3.3-3.5c1.7-0.5,2.7-2.5,4.5-2.6
			c0.8-0.2,1.7,0,2.5,0.3c0.7,0.3,1.7,0.5,2.1,1.1c0.3,0.4,1.6,1.1,2.1,2c0.3,0.6,1.1,1.2,1.3,1.9c0.1,0.3,0.4,1.7,0.4,2.1
			C163.4,86.6,163,88.9,162.8,89.4"/>
		<path class="st1" d="M169.4,89.7c0.3,0.1,0.7,0.3,0.7,0.7c-0.1,0.4-0.4,0.2-0.6,0.3c-0.4,0.2-0.3,1-0.9,0.9
			c-0.3,0-0.6,0.1-0.9,0.2c-0.7,0-1.7,0.1-2.3-0.3c-0.2-0.1-0.3-0.2-0.4-0.3c-0.1-0.1-0.7-0.2-0.6-0.8c0-0.2-0.1-0.2-0.2-0.3
			c-0.3-0.3,0-0.8,0.4-0.8c0.2,0,0.5,0,0.6,0c0.6-0.3,1.3-0.1,2,0c0.3,0,0.7,0.1,1,0.2C168.4,89.5,169.3,89.7,169.4,89.7"/>
		<path class="st1" d="M144.8,94c0,0.1,0.2,0.2,0.2,0.3c0.2,0.4-0.2,0.8-0.5,1c-0.3,0.2-0.7,0.3-1,0.6c-0.2,0.1-1,0.5-1.2,0.5
			c-0.2,0-1.1,0.1-1.3,0c-0.4-0.1-0.8-0.5-0.9-0.9c0.3-1.6,2.2-1.9,3.4-2.4C144.3,93,144.9,93.4,144.8,94"/>
		<path class="st1" d="M160.8,96.7c0.4,0.3,0.8,0.6,1,1.1c0.3,0.5,0.3,1,0.5,1.5c0.2,0.6-0.6,0.8-0.8,1.3c-0.1,0.1-0.1,0.3-0.3,0.3
			c-0.3,0.1-0.7-0.1-0.9-0.2c-0.3-0.1-0.6-0.1-0.8-0.4c-0.2-0.2-0.2-0.5-0.3-0.8c0-0.3,0-0.8-0.2-1.1c-0.1-0.1-0.2-0.2-0.2-0.4
			c0-0.2,0-0.3,0-0.4c-0.1-0.5,0.2-0.5,0.2-0.8c0-0.2,0.1-0.4,0.2-0.4c0.3,0,0.6,0.1,0.9,0.2C160.2,96.6,160.7,96.5,160.8,96.7"/>
		<path class="st1" d="M152.6,98.3c0.4,0.7,0.4,1.4,0,2.1c-0.2,0.6-0.6,1.1-1,1.6c-0.1,0.2-0.3,0.5-0.5,0.6c-0.6,0.2-1-0.2-1.1-0.4
			c-0.1-0.1-0.3-0.4-0.3-0.5c-0.1-1.6,1.2-3.9,1.8-4C152,97.6,152.2,98.1,152.6,98.3"/>
		<path class="st1" d="M203.4,176.6c-0.4,0.2,0,1.2-0.2,1.6c-0.2,0.4-0.8,0.5-1.2,0.4c-0.4-0.1-0.3-0.5-0.1-0.8c0,0,0-0.2,0-0.2
			c0-0.1,0.1-0.1,0.1-0.2c0.1-0.1,0.2-0.3,0.1-0.4c0,0-0.1-0.1-0.2-0.2c-0.1-0.1-0.1-0.2,0-0.4c0-0.1,0-0.3,0.1-0.3
			c0.1,0,0.2,0,0.3,0c0.2,0.1,0.4,0.2,0.5,0.2c0.1,0.1,0.2,0.1,0.4,0.1c0.1,0,0.2,0,0.3-0.1c0.1,0,0.2-0.1,0.3-0.1
			c0.2-0.1,0.4,0,0.5,0.2c0,0.1,0,0.4-0.2,0.4c-0.1,0-0.1-0.1-0.2-0.2C203.6,176.5,203.5,176.5,203.4,176.6"/>
		<path class="st1" d="M192.4,168c-0.2,0-0.3,0.3-0.6,0.2c-0.2-0.1-0.2-0.3-0.1-0.4c0-0.1,0-0.3,0.1-0.5c0.2-0.4,0.8,0,1-0.5
			c0.1-0.2,0.4-1,0.7-0.6c0.2,0.3-0.2,0.7-0.1,1c0,0.2,0,0.3-0.1,0.5c-0.1,0.1-0.3,0.3-0.4,0.4C192.7,168,192.5,167.9,192.4,168"/>
		<path class="st1" d="M202.7,152.5c-0.1,0-0.3,0.2-0.3,0.3c-0.1,0.2,0.2,0.2,0.3,0.1c0.1,0,0.4-0.3,0.3-0.5
			C203,152.3,202.7,152.5,202.7,152.5"/>
		<path class="st1" d="M213.4,155.4c-0.1-0.2-0.8,0-0.8,0.3C212.6,155.8,213.6,155.8,213.4,155.4"/>
		<path class="st1" d="M214.7,151.8c-0.1,0-0.3-0.5-0.5,0c-0.1,0.2-0.2,0.4-0.1,0.5c0.2,0.2,0.6,0.1,0.8,0c0.2-0.1,0.4-0.4,0.1-0.5
			C214.9,151.8,214.8,151.8,214.7,151.8"/>
		<path class="st1" d="M209.9,150.5c-0.2-0.1-0.6,0.4-0.8,0.5c-0.5,0.4-0.9,0.9-1.2,1.5c-0.2,0.3-0.4,0.4-0.7,0.6
			c-0.1,0.1-0.2,0.2-0.1,0.3c0.2,0.1,0.5-0.1,0.6-0.1c0.2-0.1,0.3-0.2,0.4-0.3c0.1-0.1,0.3-0.1,0.4-0.2c0.1-0.1,0.2-0.2,0.2-0.3
			c0.1-0.1,0.2-0.2,0.3-0.3c0.1-0.1,0.2-0.2,0.3-0.3c0.2-0.2,0.3-0.4,0.5-0.6c0.1-0.1,0.3-0.6,0.1-0.7
			C210,150.4,209.9,150.5,209.9,150.5"/>
		<path class="st1" d="M218.2,150.2c-0.1,0-0.3,0-0.4,0c-0.5-0.1-0.5-0.3-0.6,0.3c0,0.1-0.2,1.1,0,1.1c0.3,0,0.6-0.5,0.8-0.7
			C218,150.9,218.6,150.2,218.2,150.2"/>
		<path class="st1" d="M219.6,153c0.3,0.1-0.2,0.6-0.4,0.7c-0.2,0.1-0.6,0.1-0.8,0.2c-0.1,0-0.4,0.1-0.5,0.1c-0.1-0.1,0-0.3,0-0.4
			c0.1-0.1,0.2-0.2,0.4-0.3c0.2-0.1,0.3-0.2,0.5-0.3C219,152.8,219.3,152.9,219.6,153"/>
		<path class="st1" d="M204.3,154.7c0.4-0.1,0.2,0.4,0.1,0.6c-0.1,0.1-0.5,0.5-0.5,0.5C203.3,155.9,203.9,154.8,204.3,154.7"/>
		<path class="st1" d="M202.8,156.3c-0.2-0.2-0.7,0.5-1,0.8c-0.2,0.2-1,0.4-0.4,0.8c0.5,0.3,0.8-0.3,1-0.6
			C202.5,157.1,203,156.5,202.8,156.3"/>
		<path class="st1" d="M216.2,156.6c0,0.1-0.2,0.2-0.2,0.3c0,0.1,0,0.2,0,0.3c0.1,0,0.1,0.2,0.2,0.2c0.1,0,0.2,0,0.3,0
			c0.1-0.1,0.3-0.2,0.2-0.4c-0.1-0.1-0.2-0.2-0.3-0.3C216.4,156.7,216.3,156.4,216.2,156.6"/>
		<path class="st1" d="M216.4,158.1c-0.7,0-1.9,0-2.4,0.6c-0.4,0.5,0,1.2,0.6,1.3c0.3,0.1,0.9,0.1,1.2-0.2c0.2-0.2,0.3-0.6,0.5-0.9
			c0.2-0.2,0.6-0.2,0.7-0.5C217,158.2,216.6,158.1,216.4,158.1"/>
		<path class="st1" d="M226.3,161.2c-0.4,0.2-1.2,0.7-1,1.3C225.6,162.7,226.8,161,226.3,161.2"/>
		<path class="st1" d="M214.2,160.4c-0.3,0-0.8-0.5-0.9,0.1c-0.1,0.6,0.8,0.2,1,0.1c0,0,0,0,0-0.1
			C214.4,160.4,214.3,160.4,214.2,160.4"/>
		<path class="st1" d="M183.4,168.1c-0.2-0.3-0.7,0.1-0.8,0.2c-0.1,0.1-0.2,0.2-0.4,0.2c-0.2,0-0.4-0.1-0.5,0.1
			c-0.3,0.2,0,0.3,0.2,0.3c0.2,0,0.4,0,0.5,0.1c0.4,0.1,0.7,0.1,0.9-0.3C183.4,168.4,183.5,168.3,183.4,168.1"/>
		<path class="st1" d="M180.2,169.4c-0.1-0.2-0.1,0-0.2,0.1c-0.2,0.1-0.3,0.1-0.5,0.1c-0.1,0-0.3,0-0.3,0.2c-0.1,0-0.1,0.3-0.1,0.4
			c0.1,0.1,0.3,0,0.4-0.1c0.1-0.1,0.2-0.1,0.4-0.1C180.3,169.9,180.4,169.7,180.2,169.4"/>
		<path class="st1" d="M194,167.7c-0.2,0.2-0.4,0.3-0.6,0.5c-0.1,0.1-0.2,0.2-0.1,0.3c0.1,0.2,0.3,0,0.5-0.1
			c0.2-0.1,0.3-0.1,0.5-0.2c0.2-0.1,0.2-0.2,0.4-0.3c0.2-0.2,0.7-0.4,0.7-0.7c0.1-0.5-0.6-0.1-0.8,0
			C194.3,167.4,194.2,167.5,194,167.7"/>
		<path class="st1" d="M194.4,170.4c0.2,0.4,0.4,0.6,0.8,0.6c0.2,0,0.9,0.2,0.9-0.2c0-0.1-0.1-0.3-0.2-0.4c-0.1-0.2-0.1-0.2-0.4-0.2
			c-0.2,0-0.3,0.1-0.5,0c-0.2-0.1-0.6-0.6-0.7-0.5C194.2,169.9,194.4,170.3,194.4,170.4"/>
		<path class="st1" d="M196.1,169.6c0,0.2,0.1,0.3,0.3,0.4c0.8,0.5,0.4-0.2,0.7-0.6c0.1-0.2,0.4-0.4,0.3-0.6
			C197.4,168.4,196.1,169,196.1,169.6"/>
		<path class="st1" d="M197.5,171.1c0.1-0.1,0.3-0.2,0.4-0.3c0.2-0.2,0.5-0.3,0.7-0.6c0,0,0.2-0.6,0-0.5c-0.3,0.1-0.4,0.5-0.7,0.6
			c-0.2,0.1-1.3,0.7-1.3,0.9c0,0.1,0.3,0.2,0.4,0.2c0.2,0,0.1-0.1,0.3-0.2C197.3,171.2,197.4,171.1,197.5,171.1"/>
		<path class="st1" d="M197.9,171.5c-0.1,0-0.2,0.1-0.3,0.1c-0.1,0.1-0.3,0.1-0.4,0.2c-0.1,0.1-0.2,0.1-0.2,0.2
			c0,0.1,0.1,0.2,0.2,0.3c0.1,0.1,0.3,0.2,0.4,0.2c0.1,0,0.2-0.2,0.2-0.3c0-0.1-0.1-0.1-0.1-0.2c0-0.1,0.1-0.1,0.2-0.2
			c0.1-0.1,0.1-0.2,0.1-0.3C198,171.5,198,171.5,197.9,171.5"/>
		<path class="st1" d="M196.9,172.6c-0.1,0-0.1,0-0.2,0.1c-0.1,0-0.2,0.1-0.2,0.1c-0.1,0.1-0.4,0.2-0.2,0.4c0.1,0.1,0.2,0.1,0.4,0.1
			c0.1,0,0.2,0,0.2,0c0.1,0,0.1-0.1,0.1-0.2c0-0.1,0.1-0.2,0.1-0.3C197,172.7,196.9,172.6,196.9,172.6"/>
		<path class="st1" d="M205.7,176.7c-0.2,0.1-0.3,0.1-0.4,0.3c-0.1,0.2-0.1,0.4,0.1,0.4c0.4,0,0.8-0.3,1.2-0.5c0,0,0.8-0.5,0.7-0.6
			C206.8,176.2,206.2,176.5,205.7,176.7C205.7,176.7,205.7,176.7,205.7,176.7"/>
		<path class="st1" d="M195.4,176.1c-0.1,0.2-0.6,0.6-0.6,0.9c0,0.4,0.5,0.4,0.9,0.4c0.9,0.1,2.1,0.3,2.8-0.5c0.2-0.3,0.5-1,0.2-1.3
			c-0.3-0.5-0.6-0.1-1.1,0C196.7,175.7,196.1,175.2,195.4,176.1"/>
		<path class="st1" d="M210.6,174.7c-0.1,0.1-0.1,0.1-0.1,0.2c0.1,0.2,0.2,0.2,0.4,0.3c0.3,0.1,0.7,0.2,0.9,0.4
			c0.1,0.1,0.3,0.4,0.5,0.4c0.3,0.1,0.4-0.1,0.5-0.4c0-0.1,0-0.3,0.1-0.4c0-0.1,0.1-0.2,0.1-0.3c-0.1-0.3-0.5-0.4-0.8-0.4
			c-0.2,0-0.5,0-0.7,0.1c-0.1,0.1-0.2,0.1-0.4,0.1C210.9,174.7,210.7,174.6,210.6,174.7"/>
	</g>
</g>
<g>
	<path class="st2" d="M35.8,288.8c-0.7-3-2.4-5.1-5.1-6.3c-1.5-0.7-3.2-1-5.1-1c-3.6,0-6.5,1.3-8.8,4c-2.3,2.7-3.4,6.7-3.4,12.1
		c0,5.4,1.2,9.3,3.7,11.5c2.5,2.3,5.3,3.4,8.5,3.4c3.1,0,5.6-0.9,7.6-2.7s3.2-4.1,3.7-7H26.6v-7.4H45v23.7h-6.1l-0.9-5.5
		c-1.8,2.1-3.4,3.6-4.8,4.4c-2.4,1.5-5.4,2.2-9,2.2c-5.9,0-10.7-2-14.4-6.1c-3.9-4.1-5.8-9.6-5.8-16.7c0-7.1,2-12.9,5.9-17.2
		c3.9-4.3,9.1-6.5,15.6-6.5c5.6,0,10.1,1.4,13.5,4.3c3.4,2.8,5.4,6.4,5.9,10.7H35.8z"/>
	<path class="st2" d="M62.4,282.6h-8.7v-7.9h8.7V282.6z M53.7,286.5h8.7v32.7h-8.7V286.5z"/>
	<path class="st2" d="M89.2,285.8c0.1,0,0.4,0,0.7,0v8.8c-0.5-0.1-1-0.1-1.4-0.1c-0.4,0-0.8,0-1,0c-3.4,0-5.7,1.1-6.9,3.4
		c-0.7,1.3-1,3.2-1,5.8v15.6H71v-32.7h8.2v5.7c1.3-2.2,2.5-3.7,3.4-4.5c1.6-1.3,3.7-2,6.2-2C89,285.7,89.1,285.8,89.2,285.8z"/>
	<path class="st2" d="M104.1,319.2h-8.5V275h8.5V319.2z"/>
	<path class="st2" d="M119.5,308.8c0.2,1.5,0.6,2.6,1.2,3.2c1.1,1.1,3,1.7,5.9,1.7c1.7,0,3-0.2,4-0.7c1-0.5,1.5-1.2,1.5-2.2
		c0-1-0.4-1.7-1.2-2.2c-0.8-0.5-3.8-1.4-8.9-2.6c-3.7-0.9-6.3-2.1-7.8-3.4c-1.5-1.4-2.3-3.3-2.3-5.9c0-3,1.2-5.6,3.6-7.8
		c2.4-2.2,5.7-3.3,10-3.3c4.1,0,7.4,0.8,10,2.4c2.6,1.6,4.1,4.4,4.4,8.4h-8.5c-0.1-1.1-0.4-2-0.9-2.6c-0.9-1.2-2.5-1.7-4.8-1.7
		c-1.9,0-3.2,0.3-4,0.9c-0.8,0.6-1.2,1.3-1.2,2c0,1,0.4,1.7,1.3,2.1c0.8,0.5,3.8,1.2,8.9,2.4c3.4,0.8,6,2,7.7,3.6
		c1.7,1.6,2.5,3.7,2.5,6.1c0,3.2-1.2,5.9-3.6,7.9c-2.4,2-6.1,3.1-11.2,3.1c-5.1,0-8.9-1.1-11.4-3.3c-2.5-2.2-3.7-4.9-3.7-8.3H119.5z
		"/>
	<path class="st2" d="M177.5,274.6c0.4,0,1,0.1,1.8,0.1v7c-0.5-0.1-1.3-0.1-2.4-0.1c-1.1,0-1.9,0.2-2.3,0.8s-0.6,1.1-0.6,1.8
		s0,1.6,0,2.8h5.6v6h-5.6v26.4h-8.5v-26.4h-4.8v-6h4.7v-2.1c0-3.5,0.6-5.9,1.8-7.2c1.2-2,4.2-2.9,9-2.9
		C176.5,274.6,177,274.6,177.5,274.6z"/>
	<path class="st2" d="M194.6,282.6H186v-7.9h8.7V282.6z M186,286.5h8.7v32.7H186V286.5z"/>
	<path class="st2" d="M221.5,285.8c0.1,0,0.4,0,0.7,0v8.8c-0.5-0.1-1-0.1-1.4-0.1c-0.4,0-0.8,0-1,0c-3.4,0-5.7,1.1-6.9,3.4
		c-0.7,1.3-1,3.2-1,5.8v15.6h-8.6v-32.7h8.2v5.7c1.3-2.2,2.5-3.7,3.4-4.5c1.6-1.3,3.7-2,6.2-2C221.2,285.7,221.4,285.8,221.5,285.8z
		"/>
	<path class="st2" d="M234.3,308.8c0.2,1.5,0.6,2.6,1.2,3.2c1.1,1.1,3,1.7,5.9,1.7c1.7,0,3-0.2,4-0.7s1.5-1.2,1.5-2.2
		c0-1-0.4-1.7-1.2-2.2c-0.8-0.5-3.8-1.4-8.9-2.6c-3.7-0.9-6.3-2.1-7.8-3.4c-1.5-1.4-2.3-3.3-2.3-5.9c0-3,1.2-5.6,3.6-7.8
		c2.4-2.2,5.7-3.3,10-3.3c4.1,0,7.4,0.8,10,2.4c2.6,1.6,4.1,4.4,4.4,8.4h-8.5c-0.1-1.1-0.4-2-0.9-2.6c-0.9-1.2-2.5-1.7-4.8-1.7
		c-1.9,0-3.2,0.3-4,0.9c-0.8,0.6-1.2,1.3-1.2,2c0,1,0.4,1.7,1.3,2.1c0.8,0.5,3.8,1.2,8.9,2.4c3.4,0.8,6,2,7.7,3.6
		c1.7,1.6,2.5,3.7,2.5,6.1c0,3.2-1.2,5.9-3.6,7.9c-2.4,2-6.1,3.1-11.2,3.1c-5.1,0-8.9-1.1-11.4-3.3c-2.5-2.2-3.7-4.9-3.7-8.3H234.3z
		"/>
	<path class="st2" d="M258.9,292.9v-6.1h4.6v-9.1h8.5v9.1h5.3v6.1h-5.3v17.3c0,1.3,0.2,2.2,0.5,2.5c0.3,0.3,1.4,0.5,3.1,0.5
		c0.3,0,0.5,0,0.8,0c0.3,0,0.6,0,0.9,0v6.4l-4,0.1c-4,0.1-6.8-0.6-8.3-2.1c-1-1-1.4-2.5-1.4-4.5v-20.1H258.9z"/>
</g>
</svg>
